<svg xmlns="http://www.w3.org/2000/svg" xmlns:xlink="http://www.w3.org/1999/xlink" width="500" zoomAndPan="magnify" viewBox="0 0 375 112.499997" height="150" preserveAspectRatio="xMidYMid meet" version="1.0"><defs><g/><clipPath id="885a59cebc"><path d="M 0.828125 0 L 374.167969 0 L 374.167969 112.003906 L 0.828125 112.003906 Z M 0.828125 0 " clip-rule="nonzero"/></clipPath><clipPath id="52aa42fa0a"><path d="M 34 4.769531 L 140.214844 4.769531 L 140.214844 83.917969 L 34 83.917969 Z M 34 4.769531 " clip-rule="nonzero"/></clipPath><clipPath id="c0ed2deaf3"><path d="M 56 4.769531 L 140.214844 4.769531 L 140.214844 53 L 56 53 Z M 56 4.769531 " clip-rule="nonzero"/></clipPath><clipPath id="92b431c61e"><path d="M 19.253906 54 L 51 54 L 51 73 L 19.253906 73 Z M 19.253906 54 " clip-rule="nonzero"/></clipPath></defs><g clip-path="url(#885a59cebc)"><path fill="#ffffff" d="M 0.828125 0 L 374.171875 0 L 374.171875 112.003906 L 0.828125 112.003906 Z M 0.828125 0 " fill-opacity="1" fill-rule="nonzero"/><path fill="#01205a" d="M 0.828125 0 L 374.171875 0 L 374.171875 112.003906 L 0.828125 112.003906 Z M 0.828125 0 " fill-opacity="1" fill-rule="nonzero"/></g><path fill="#fafafd" d="M 58.335938 80.457031 C 58.078125 80.457031 57.832031 80.394531 57.605469 80.269531 C 57.367188 80.140625 57.175781 79.960938 57.035156 79.726562 C 56.894531 79.492188 56.824219 79.242188 56.824219 78.96875 L 56.824219 50.582031 C 56.824219 50.386719 56.859375 50.195312 56.9375 50.011719 C 57.011719 49.832031 57.121094 49.667969 57.257812 49.53125 C 57.398438 49.390625 57.558594 49.28125 57.742188 49.207031 C 57.925781 49.132812 58.113281 49.09375 58.3125 49.09375 C 58.507812 49.09375 58.699219 49.132812 58.882812 49.207031 C 59.066406 49.28125 59.226562 49.390625 59.367188 49.53125 C 59.503906 49.667969 59.613281 49.832031 59.6875 50.011719 C 59.765625 50.195312 59.800781 50.386719 59.800781 50.582031 L 59.800781 76.304688 L 75.253906 66.816406 C 75.421875 66.714844 75.601562 66.644531 75.796875 66.613281 C 75.992188 66.582031 76.1875 66.589844 76.378906 66.636719 C 76.574219 66.679688 76.75 66.761719 76.910156 66.878906 C 77.070312 66.992188 77.203125 67.136719 77.308594 67.304688 C 77.410156 67.472656 77.480469 67.65625 77.511719 67.851562 C 77.542969 68.046875 77.535156 68.238281 77.488281 68.433594 C 77.445312 68.625 77.363281 68.800781 77.246094 68.960938 C 77.132812 69.121094 76.988281 69.253906 76.820312 69.359375 L 59.113281 80.238281 C 58.871094 80.382812 58.613281 80.453125 58.335938 80.457031 Z M 58.335938 80.457031 " fill-opacity="1" fill-rule="nonzero"/><g clip-path="url(#52aa42fa0a)"><path fill="#fafafd" d="M 92.445312 84.175781 C 92.054688 84.171875 91.714844 84.039062 91.425781 83.773438 L 35.304688 30.953125 C 35.105469 30.761719 34.96875 30.535156 34.894531 30.273438 C 34.820312 30.007812 34.820312 29.742188 34.894531 29.476562 C 34.964844 29.210938 35.097656 28.984375 35.296875 28.792969 C 35.492188 28.601562 35.726562 28.476562 35.992188 28.414062 L 138.46875 4.808594 C 138.757812 4.753906 139.039062 4.777344 139.308594 4.886719 C 139.582031 4.996094 139.800781 5.171875 139.972656 5.410156 C 140.140625 5.652344 140.230469 5.917969 140.242188 6.210938 C 140.253906 6.503906 140.1875 6.773438 140.039062 7.027344 L 93.707031 83.460938 C 93.460938 83.863281 93.101562 84.101562 92.632812 84.167969 Z M 39.371094 30.695312 L 92.132812 80.339844 L 135.679688 8.5 Z M 39.371094 30.695312 " fill-opacity="1" fill-rule="nonzero"/></g><g clip-path="url(#c0ed2deaf3)"><path fill="#fafafd" d="M 58.335938 52.070312 C 57.992188 52.074219 57.6875 51.972656 57.417969 51.761719 C 57.144531 51.554688 56.96875 51.285156 56.882812 50.953125 C 56.796875 50.625 56.824219 50.300781 56.960938 49.988281 C 57.09375 49.675781 57.3125 49.4375 57.613281 49.273438 L 138.0625 4.957031 C 138.234375 4.847656 138.425781 4.773438 138.628906 4.738281 C 138.832031 4.707031 139.035156 4.714844 139.234375 4.765625 C 139.433594 4.816406 139.617188 4.902344 139.777344 5.03125 C 139.941406 5.15625 140.074219 5.308594 140.171875 5.492188 C 140.273438 5.671875 140.332031 5.863281 140.351562 6.070312 C 140.371094 6.277344 140.347656 6.476562 140.285156 6.671875 C 140.222656 6.867188 140.121094 7.042969 139.984375 7.199219 C 139.847656 7.351562 139.683594 7.472656 139.496094 7.558594 L 59.050781 51.882812 C 58.828125 52.007812 58.589844 52.070312 58.335938 52.070312 Z M 58.335938 52.070312 " fill-opacity="1" fill-rule="nonzero"/></g><g clip-path="url(#92b431c61e)"><path fill="#95258b" d="M 20.800781 72.515625 C 20.460938 72.515625 20.15625 72.410156 19.886719 72.203125 C 19.621094 71.992188 19.445312 71.722656 19.359375 71.390625 C 19.277344 71.0625 19.304688 70.742188 19.441406 70.429688 C 19.578125 70.117188 19.796875 69.882812 20.09375 69.71875 L 48.003906 54.613281 C 48.175781 54.53125 48.355469 54.484375 48.546875 54.472656 C 48.738281 54.460938 48.921875 54.488281 49.101562 54.546875 C 49.285156 54.605469 49.445312 54.695312 49.59375 54.820312 C 49.738281 54.941406 49.855469 55.085938 49.949219 55.253906 C 50.039062 55.421875 50.09375 55.601562 50.117188 55.789062 C 50.136719 55.976562 50.125 56.164062 50.074219 56.347656 C 50.023438 56.53125 49.941406 56.699219 49.828125 56.851562 C 49.714844 57.003906 49.578125 57.132812 49.414062 57.230469 L 21.507812 72.335938 C 21.285156 72.457031 21.050781 72.515625 20.800781 72.515625 Z M 20.800781 72.515625 " fill-opacity="1" fill-rule="nonzero"/></g><path fill="#95258b" d="M 33.734375 77.007812 C 33.398438 77.007812 33.097656 76.902344 32.832031 76.695312 C 32.566406 76.488281 32.390625 76.222656 32.304688 75.898438 C 32.21875 75.570312 32.242188 75.253906 32.371094 74.941406 C 32.503906 74.632812 32.714844 74.394531 33.007812 74.226562 L 47.273438 66.207031 C 47.445312 66.101562 47.632812 66.03125 47.835938 66 C 48.035156 65.972656 48.234375 65.980469 48.429688 66.03125 C 48.625 66.082031 48.804688 66.171875 48.964844 66.292969 C 49.125 66.417969 49.253906 66.566406 49.355469 66.746094 C 49.453125 66.921875 49.515625 67.109375 49.539062 67.3125 C 49.558594 67.511719 49.542969 67.710938 49.480469 67.90625 C 49.421875 68.101562 49.328125 68.273438 49.199219 68.429688 C 49.070312 68.585938 48.914062 68.710938 48.734375 68.800781 L 34.464844 76.820312 C 34.238281 76.945312 33.996094 77.007812 33.734375 77.007812 Z M 33.734375 77.007812 " fill-opacity="1" fill-rule="nonzero"/><path fill="#95258b" d="M 45.363281 80.457031 C 45.019531 80.457031 44.71875 80.351562 44.449219 80.140625 C 44.179688 79.933594 44.003906 79.664062 43.921875 79.332031 C 43.839844 79.003906 43.867188 78.683594 44.003906 78.371094 C 44.140625 78.058594 44.355469 77.820312 44.65625 77.660156 L 48.003906 75.855469 C 48.171875 75.789062 48.351562 75.75 48.53125 75.746094 C 48.714844 75.742188 48.894531 75.773438 49.066406 75.835938 C 49.238281 75.898438 49.394531 75.988281 49.535156 76.105469 C 49.671875 76.226562 49.785156 76.367188 49.875 76.527344 C 49.960938 76.6875 50.015625 76.859375 50.039062 77.042969 C 50.0625 77.222656 50.054688 77.402344 50.011719 77.582031 C 49.96875 77.757812 49.898438 77.925781 49.792969 78.074219 C 49.691406 78.226562 49.566406 78.355469 49.414062 78.460938 L 46.066406 80.253906 C 45.851562 80.382812 45.613281 80.453125 45.363281 80.457031 Z M 45.363281 80.457031 " fill-opacity="1" fill-rule="nonzero"/><g fill="#eaeaea" fill-opacity="1"><g transform="translate(150.525149, 61.020175)"><g><path d="M 25.890625 -12.25 C 26.335938 -14.75 25.109375 -16.660156 22.203125 -17.984375 L 16.125 -20.40625 C 9.070312 -23.5625 5.722656 -27.898438 6.078125 -33.421875 C 6.222656 -35.984375 7.0625 -38.25 8.59375 -40.21875 C 10.132812 -42.195312 12.289062 -43.75 15.0625 -44.875 C 17.832031 -46 20.820312 -46.539062 24.03125 -46.5 C 28.46875 -46.414062 32.050781 -45.097656 34.78125 -42.546875 C 37.507812 -39.992188 38.851562 -36.578125 38.8125 -32.296875 L 29.609375 -32.296875 C 29.710938 -34.367188 29.253906 -35.984375 28.234375 -37.140625 C 27.222656 -38.296875 25.644531 -38.894531 23.5 -38.9375 C 21.394531 -38.976562 19.566406 -38.5 18.015625 -37.5 C 16.460938 -36.5 15.539062 -35.128906 15.25 -33.390625 C 14.84375 -31.097656 16.375 -29.28125 19.84375 -27.9375 L 24 -26.359375 L 26.40625 -25.265625 C 32.59375 -22.203125 35.488281 -17.894531 35.09375 -12.34375 C 34.90625 -9.632812 34.035156 -7.296875 32.484375 -5.328125 C 30.941406 -3.367188 28.84375 -1.863281 26.1875 -0.8125 C 23.53125 0.226562 20.609375 0.71875 17.421875 0.65625 C 14.160156 0.59375 11.257812 -0.0859375 8.71875 -1.390625 C 6.1875 -2.691406 4.253906 -4.53125 2.921875 -6.90625 C 1.691406 -9.101562 1.117188 -11.617188 1.203125 -14.453125 L 10.421875 -14.421875 C 10.128906 -9.453125 12.578125 -6.921875 17.765625 -6.828125 C 20.015625 -6.828125 21.863281 -7.320312 23.3125 -8.3125 C 24.757812 -9.300781 25.617188 -10.613281 25.890625 -12.25 Z M 25.890625 -12.25 "/></g></g></g><g fill="#eaeaea" fill-opacity="1"><g transform="translate(187.175915, 61.020175)"><g><path d="M 14.84375 -13.578125 L 10.703125 -9.984375 L 8.984375 0 L 0.09375 0 L 8.46875 -48.390625 L 17.390625 -48.390625 L 12.796875 -22.109375 L 14.515625 -23.96875 L 24.640625 -34.078125 L 36.03125 -34.078125 L 21.140625 -19.4375 L 30.625 0 L 20.890625 0 Z M 14.84375 -13.578125 "/></g></g></g><g fill="#eaeaea" fill-opacity="1"><g transform="translate(218.786217, 61.020175)"><g><path d="M 14.546875 -12.984375 L 24.28125 -34.078125 L 34.171875 -34.078125 L 14.234375 5.140625 C 12.804688 8.140625 11.128906 10.34375 9.203125 11.75 C 7.285156 13.15625 5.066406 13.859375 2.546875 13.859375 C 1.566406 13.859375 0.140625 13.640625 -1.734375 13.203125 L -1.078125 6.265625 L 0.15625 6.328125 C 3.050781 6.410156 5.171875 5.351562 6.515625 3.15625 L 8.46875 -0.46875 L 2.890625 -34.078125 L 12.09375 -34.078125 Z M 14.546875 -12.984375 "/></g></g></g><g fill="#eaeaea" fill-opacity="1"><g transform="translate(248.38033, 61.020175)"><g><path d="M 11.21875 -7.59375 L 30.6875 -7.59375 L 29.359375 0 L 0.65625 0 L 8.625 -45.859375 L 17.859375 -45.859375 Z M 11.21875 -7.59375 "/></g></g></g><g fill="#eaeaea" fill-opacity="1"><g transform="translate(280.463179, 61.020175)"><g><path d="M 9.484375 0 L 0.53125 0 L 6.453125 -34.078125 L 15.40625 -34.078125 Z M 7.5 -42.75 C 7.457031 -44.15625 7.914062 -45.316406 8.875 -46.234375 C 9.84375 -47.160156 11.007812 -47.625 12.375 -47.625 C 13.71875 -47.664062 14.882812 -47.253906 15.875 -46.390625 C 16.863281 -45.535156 17.378906 -44.425781 17.421875 -43.0625 C 17.460938 -41.757812 17.023438 -40.625 16.109375 -39.65625 C 15.203125 -38.695312 14.007812 -38.195312 12.53125 -38.15625 C 11.207031 -38.101562 10.046875 -38.5 9.046875 -39.34375 C 8.054688 -40.1875 7.539062 -41.320312 7.5 -42.75 Z M 7.5 -42.75 "/></g></g></g><g fill="#eaeaea" fill-opacity="1"><g transform="translate(295.250936, 61.020175)"><g><path d="M 14.140625 -34.109375 L 13.390625 -30.078125 C 16.117188 -33.253906 19.425781 -34.800781 23.3125 -34.71875 C 26.519531 -34.65625 28.890625 -33.476562 30.421875 -31.1875 C 31.960938 -28.894531 32.519531 -25.722656 32.09375 -21.671875 L 28.515625 0 L 19.625 0 L 23.28125 -21.765625 C 23.382812 -22.585938 23.40625 -23.332031 23.34375 -24 C 23.070312 -26.144531 21.726562 -27.25 19.3125 -27.3125 C 16.976562 -27.394531 14.890625 -26.3125 13.046875 -24.0625 L 8.78125 0 L -0.09375 0 L 5.828125 -34.078125 Z M 14.140625 -34.109375 "/></g></g></g><g fill="#eaeaea" fill-opacity="1"><g transform="translate(328.499391, 61.020175)"><g><path d="M 16.28125 0.625 C 13.300781 0.601562 10.660156 -0.125 8.359375 -1.5625 C 6.066406 -3 4.351562 -4.972656 3.21875 -7.484375 C 2.082031 -9.992188 1.640625 -12.757812 1.890625 -15.78125 L 1.984375 -17.046875 C 2.296875 -20.359375 3.257812 -23.398438 4.875 -26.171875 C 6.5 -28.953125 8.582031 -31.09375 11.125 -32.59375 C 13.664062 -34.09375 16.476562 -34.800781 19.5625 -34.71875 C 23.945312 -34.632812 27.269531 -33.019531 29.53125 -29.875 C 31.789062 -26.738281 32.644531 -22.765625 32.09375 -17.953125 L 31.59375 -14.078125 L 10.703125 -14.078125 C 10.617188 -11.878906 11.15625 -10.113281 12.3125 -8.78125 C 13.46875 -7.457031 15.046875 -6.773438 17.046875 -6.734375 C 20.273438 -6.648438 23.109375 -7.898438 25.546875 -10.484375 L 29.609375 -5.453125 C 28.328125 -3.515625 26.476562 -2.003906 24.0625 -0.921875 C 21.644531 0.148438 19.050781 0.664062 16.28125 0.625 Z M 19.125 -27.375 C 17.488281 -27.414062 16.035156 -26.898438 14.765625 -25.828125 C 13.492188 -24.753906 12.351562 -22.894531 11.34375 -20.25 L 23.5625 -20.25 L 23.75 -21.078125 C 23.875 -21.910156 23.882812 -22.707031 23.78125 -23.46875 C 23.570312 -24.6875 23.054688 -25.632812 22.234375 -26.3125 C 21.421875 -27 20.382812 -27.351562 19.125 -27.375 Z M 19.125 -27.375 "/></g></g></g><g fill="#6263f0" fill-opacity="1"><g transform="translate(24.089698, 100.258481)"><g><path d="M 3.078125 0 L 1.21875 0 L 1.21875 -10.171875 L 8.171875 -10.171875 L 8.171875 -8.5 L 3.078125 -8.5 L 3.078125 -5.5625 L 7.484375 -5.5625 L 7.484375 -4 L 3.078125 -4 Z M 3.078125 0 "/></g></g></g><g fill="#6263f0" fill-opacity="1"><g transform="translate(34.277478, 100.258481)"><g><path d="M 7.65625 0 L 1.21875 0 L 1.21875 -10.171875 L 3.078125 -10.171875 L 3.078125 -1.671875 L 7.65625 -1.671875 Z M 7.65625 0 "/></g></g></g><g fill="#6263f0" fill-opacity="1"><g transform="translate(43.81501, 100.258481)"><g><path d="M 3.078125 0 L 1.21875 0 L 1.21875 -10.171875 L 3.078125 -10.171875 Z M 3.078125 0 "/></g></g></g><g fill="#6263f0" fill-opacity="1"><g transform="translate(49.667808, 100.258481)"><g><path d="M 5.859375 0.21875 C 5.265625 0.21875 4.695312 0.128906 4.15625 -0.046875 C 3.625 -0.234375 3.132812 -0.488281 2.6875 -0.8125 C 2.25 -1.132812 1.863281 -1.515625 1.53125 -1.953125 C 1.207031 -2.390625 0.953125 -2.875 0.765625 -3.40625 C 0.585938 -3.9375 0.5 -4.5 0.5 -5.09375 C 0.5 -5.6875 0.585938 -6.25 0.765625 -6.78125 C 0.953125 -7.3125 1.207031 -7.796875 1.53125 -8.234375 C 1.863281 -8.679688 2.253906 -9.066406 2.703125 -9.390625 C 3.148438 -9.710938 3.644531 -9.960938 4.1875 -10.140625 C 4.726562 -10.316406 5.296875 -10.40625 5.890625 -10.40625 C 6.316406 -10.40625 6.742188 -10.351562 7.171875 -10.25 C 7.609375 -10.144531 8.023438 -9.992188 8.421875 -9.796875 C 8.828125 -9.597656 9.191406 -9.351562 9.515625 -9.0625 C 9.847656 -8.769531 10.128906 -8.4375 10.359375 -8.0625 C 10.585938 -7.6875 10.75 -7.269531 10.84375 -6.8125 L 8.953125 -6.8125 C 8.691406 -7.40625 8.289062 -7.867188 7.75 -8.203125 C 7.207031 -8.535156 6.570312 -8.703125 5.84375 -8.703125 C 5.363281 -8.703125 4.910156 -8.613281 4.484375 -8.4375 C 4.066406 -8.269531 3.695312 -8.023438 3.375 -7.703125 C 3.0625 -7.390625 2.8125 -7.007812 2.625 -6.5625 C 2.445312 -6.125 2.359375 -5.632812 2.359375 -5.09375 C 2.359375 -4.539062 2.445312 -4.039062 2.625 -3.59375 C 2.8125 -3.15625 3.0625 -2.78125 3.375 -2.46875 C 3.695312 -2.15625 4.066406 -1.914062 4.484375 -1.75 C 4.910156 -1.582031 5.363281 -1.5 5.84375 -1.5 C 6.457031 -1.5 6.984375 -1.597656 7.421875 -1.796875 C 7.867188 -2.003906 8.226562 -2.289062 8.5 -2.65625 C 8.78125 -3.019531 8.96875 -3.441406 9.0625 -3.921875 L 5.765625 -3.921875 L 5.765625 -5.46875 L 11.078125 -5.46875 C 11.085938 -4.632812 10.976562 -3.867188 10.75 -3.171875 C 10.519531 -2.484375 10.175781 -1.882812 9.71875 -1.375 C 9.269531 -0.863281 8.722656 -0.46875 8.078125 -0.1875 C 7.429688 0.0820312 6.691406 0.21875 5.859375 0.21875 Z M 5.859375 0.21875 "/></g></g></g><g fill="#6263f0" fill-opacity="1"><g transform="translate(62.822808, 100.258481)"><g><path d="M 3.078125 0 L 1.21875 0 L 1.21875 -10.171875 L 3.078125 -10.171875 L 3.078125 -5.953125 L 8.203125 -5.953125 L 8.203125 -10.171875 L 10.078125 -10.171875 L 10.078125 0 L 8.203125 0 L 8.203125 -4.296875 L 3.078125 -4.296875 Z M 3.078125 0 "/></g></g></g><g fill="#6263f0" fill-opacity="1"><g transform="translate(75.678845, 100.258481)"><g><path d="M 5.203125 0 L 3.34375 0 L 3.34375 -8.515625 L 0.328125 -8.515625 L 0.328125 -10.171875 L 8.234375 -10.171875 L 8.234375 -8.515625 L 5.203125 -8.515625 Z M 5.203125 0 "/></g></g></g><g fill="#6263f0" fill-opacity="1"><g transform="translate(85.806833, 100.258481)"><g/></g></g><g fill="#6263f0" fill-opacity="1"><g transform="translate(91.114023, 100.258481)"><g><path d="M 3.078125 0 L 1.21875 0 L 1.21875 -10.171875 L 3.078125 -10.171875 Z M 3.078125 0 "/></g></g></g><g fill="#6263f0" fill-opacity="1"><g transform="translate(96.966823, 100.258481)"><g><path d="M 3.078125 0 L 1.21875 0 L 1.21875 -10.171875 L 2.8125 -10.171875 L 8.359375 -3.046875 L 8.359375 -10.171875 L 10.203125 -10.171875 L 10.203125 0 L 8.609375 0 L 3.078125 -7.109375 Z M 3.078125 0 "/></g></g></g><g fill="#6263f0" fill-opacity="1"><g transform="translate(109.957394, 100.258481)"><g><path d="M 3.078125 0 L 1.21875 0 L 1.21875 -10.171875 L 8.171875 -10.171875 L 8.171875 -8.5 L 3.078125 -8.5 L 3.078125 -5.5625 L 7.484375 -5.5625 L 7.484375 -4 L 3.078125 -4 Z M 3.078125 0 "/></g></g></g><g fill="#6263f0" fill-opacity="1"><g transform="translate(120.145169, 100.258481)"><g><path d="M 5.96875 0.21875 C 5.363281 0.21875 4.785156 0.128906 4.234375 -0.046875 C 3.691406 -0.222656 3.191406 -0.472656 2.734375 -0.796875 C 2.285156 -1.117188 1.890625 -1.5 1.546875 -1.9375 C 1.210938 -2.382812 0.953125 -2.875 0.765625 -3.40625 C 0.585938 -3.945312 0.5 -4.507812 0.5 -5.09375 C 0.5 -5.6875 0.585938 -6.25 0.765625 -6.78125 C 0.953125 -7.3125 1.210938 -7.796875 1.546875 -8.234375 C 1.890625 -8.679688 2.285156 -9.066406 2.734375 -9.390625 C 3.191406 -9.710938 3.691406 -9.960938 4.234375 -10.140625 C 4.785156 -10.316406 5.363281 -10.40625 5.96875 -10.40625 C 6.570312 -10.40625 7.148438 -10.316406 7.703125 -10.140625 C 8.253906 -9.960938 8.757812 -9.710938 9.21875 -9.390625 C 9.675781 -9.066406 10.070312 -8.679688 10.40625 -8.234375 C 10.738281 -7.796875 11 -7.3125 11.1875 -6.78125 C 11.375 -6.25 11.46875 -5.6875 11.46875 -5.09375 C 11.46875 -4.507812 11.375 -3.945312 11.1875 -3.40625 C 11 -2.875 10.738281 -2.382812 10.40625 -1.9375 C 10.070312 -1.5 9.675781 -1.117188 9.21875 -0.796875 C 8.757812 -0.472656 8.253906 -0.222656 7.703125 -0.046875 C 7.160156 0.128906 6.582031 0.21875 5.96875 0.21875 Z M 5.96875 -1.5 C 6.476562 -1.5 6.953125 -1.585938 7.390625 -1.765625 C 7.828125 -1.941406 8.210938 -2.191406 8.546875 -2.515625 C 8.878906 -2.835938 9.140625 -3.21875 9.328125 -3.65625 C 9.515625 -4.101562 9.609375 -4.582031 9.609375 -5.09375 C 9.609375 -5.613281 9.515625 -6.09375 9.328125 -6.53125 C 9.140625 -6.96875 8.878906 -7.347656 8.546875 -7.671875 C 8.210938 -8.003906 7.828125 -8.257812 7.390625 -8.4375 C 6.953125 -8.613281 6.476562 -8.703125 5.96875 -8.703125 C 5.46875 -8.703125 5 -8.613281 4.5625 -8.4375 C 4.125 -8.257812 3.738281 -8.003906 3.40625 -7.671875 C 3.082031 -7.347656 2.828125 -6.96875 2.640625 -6.53125 C 2.453125 -6.09375 2.359375 -5.613281 2.359375 -5.09375 C 2.359375 -4.582031 2.453125 -4.101562 2.640625 -3.65625 C 2.828125 -3.21875 3.082031 -2.835938 3.40625 -2.515625 C 3.738281 -2.191406 4.125 -1.941406 4.5625 -1.765625 C 5 -1.585938 5.46875 -1.5 5.96875 -1.5 Z M 5.96875 -1.5 "/></g></g></g><g fill="#6263f0" fill-opacity="1"><g transform="translate(133.67387, 100.258481)"><g><path d="M 3.078125 0 L 1.21875 0 L 1.21875 -10.171875 L 5.59375 -10.171875 C 6.113281 -10.171875 6.585938 -10.09375 7.015625 -9.9375 C 7.441406 -9.78125 7.8125 -9.550781 8.125 -9.25 C 8.445312 -8.957031 8.691406 -8.609375 8.859375 -8.203125 C 9.035156 -7.796875 9.125 -7.347656 9.125 -6.859375 C 9.125 -6.378906 9.035156 -5.941406 8.859375 -5.546875 C 8.691406 -5.148438 8.453125 -4.8125 8.140625 -4.53125 C 7.835938 -4.25 7.476562 -4.035156 7.0625 -3.890625 L 9.359375 0 L 7.21875 0 L 5.21875 -3.609375 C 5.144531 -3.609375 5.078125 -3.609375 5.015625 -3.609375 C 4.953125 -3.609375 4.882812 -3.609375 4.8125 -3.609375 L 3.078125 -3.609375 Z M 3.078125 -8.515625 L 3.078125 -5.171875 L 5.53125 -5.171875 C 5.863281 -5.179688 6.160156 -5.253906 6.421875 -5.390625 C 6.679688 -5.535156 6.882812 -5.734375 7.03125 -5.984375 C 7.1875 -6.234375 7.265625 -6.523438 7.265625 -6.859375 C 7.265625 -7.160156 7.1875 -7.4375 7.03125 -7.6875 C 6.875 -7.9375 6.664062 -8.132812 6.40625 -8.28125 C 6.144531 -8.4375 5.851562 -8.515625 5.53125 -8.515625 Z M 3.078125 -8.515625 "/></g></g></g><g fill="#6263f0" fill-opacity="1"><g transform="translate(144.930442, 100.258481)"><g><path d="M 3.078125 0 L 1.21875 0 L 1.21875 -10.171875 L 2.828125 -10.171875 L 6.34375 -5.421875 L 9.875 -10.171875 L 11.484375 -10.171875 L 11.484375 0 L 9.625 0 L 9.625 -7.1875 L 6.59375 -3.03125 L 6.09375 -3.03125 L 3.078125 -7.203125 Z M 3.078125 0 "/></g></g></g><g fill="#6263f0" fill-opacity="1"><g transform="translate(159.19908, 100.258481)"><g><path d="M 10.296875 0 L 8.328125 0 L 7.515625 -1.96875 L 2.84375 -1.96875 L 2.03125 0 L 0.0625 0 L 4.296875 -10.171875 L 6.0625 -10.171875 Z M 5.109375 -7.53125 L 3.484375 -3.515625 L 6.890625 -3.515625 L 5.234375 -7.53125 L 5.203125 -7.78125 L 5.171875 -7.78125 Z M 5.109375 -7.53125 "/></g></g></g><g fill="#6263f0" fill-opacity="1"><g transform="translate(171.14327, 100.258481)"><g><path d="M 5.203125 0 L 3.34375 0 L 3.34375 -8.515625 L 0.328125 -8.515625 L 0.328125 -10.171875 L 8.234375 -10.171875 L 8.234375 -8.515625 L 5.203125 -8.515625 Z M 5.203125 0 "/></g></g></g><g fill="#6263f0" fill-opacity="1"><g transform="translate(181.271252, 100.258481)"><g><path d="M 3.078125 0 L 1.21875 0 L 1.21875 -10.171875 L 3.078125 -10.171875 Z M 3.078125 0 "/></g></g></g><g fill="#6263f0" fill-opacity="1"><g transform="translate(187.124047, 100.258481)"><g><path d="M 5.96875 0.21875 C 5.363281 0.21875 4.785156 0.128906 4.234375 -0.046875 C 3.691406 -0.222656 3.191406 -0.472656 2.734375 -0.796875 C 2.285156 -1.117188 1.890625 -1.5 1.546875 -1.9375 C 1.210938 -2.382812 0.953125 -2.875 0.765625 -3.40625 C 0.585938 -3.945312 0.5 -4.507812 0.5 -5.09375 C 0.5 -5.6875 0.585938 -6.25 0.765625 -6.78125 C 0.953125 -7.3125 1.210938 -7.796875 1.546875 -8.234375 C 1.890625 -8.679688 2.285156 -9.066406 2.734375 -9.390625 C 3.191406 -9.710938 3.691406 -9.960938 4.234375 -10.140625 C 4.785156 -10.316406 5.363281 -10.40625 5.96875 -10.40625 C 6.570312 -10.40625 7.148438 -10.316406 7.703125 -10.140625 C 8.253906 -9.960938 8.757812 -9.710938 9.21875 -9.390625 C 9.675781 -9.066406 10.070312 -8.679688 10.40625 -8.234375 C 10.738281 -7.796875 11 -7.3125 11.1875 -6.78125 C 11.375 -6.25 11.46875 -5.6875 11.46875 -5.09375 C 11.46875 -4.507812 11.375 -3.945312 11.1875 -3.40625 C 11 -2.875 10.738281 -2.382812 10.40625 -1.9375 C 10.070312 -1.5 9.675781 -1.117188 9.21875 -0.796875 C 8.757812 -0.472656 8.253906 -0.222656 7.703125 -0.046875 C 7.160156 0.128906 6.582031 0.21875 5.96875 0.21875 Z M 5.96875 -1.5 C 6.476562 -1.5 6.953125 -1.585938 7.390625 -1.765625 C 7.828125 -1.941406 8.210938 -2.191406 8.546875 -2.515625 C 8.878906 -2.835938 9.140625 -3.21875 9.328125 -3.65625 C 9.515625 -4.101562 9.609375 -4.582031 9.609375 -5.09375 C 9.609375 -5.613281 9.515625 -6.09375 9.328125 -6.53125 C 9.140625 -6.96875 8.878906 -7.347656 8.546875 -7.671875 C 8.210938 -8.003906 7.828125 -8.257812 7.390625 -8.4375 C 6.953125 -8.613281 6.476562 -8.703125 5.96875 -8.703125 C 5.46875 -8.703125 5 -8.613281 4.5625 -8.4375 C 4.125 -8.257812 3.738281 -8.003906 3.40625 -7.671875 C 3.082031 -7.347656 2.828125 -6.96875 2.640625 -6.53125 C 2.453125 -6.09375 2.359375 -5.613281 2.359375 -5.09375 C 2.359375 -4.582031 2.453125 -4.101562 2.640625 -3.65625 C 2.828125 -3.21875 3.082031 -2.835938 3.40625 -2.515625 C 3.738281 -2.191406 4.125 -1.941406 4.5625 -1.765625 C 5 -1.585938 5.46875 -1.5 5.96875 -1.5 Z M 5.96875 -1.5 "/></g></g></g><g fill="#6263f0" fill-opacity="1"><g transform="translate(200.652747, 100.258481)"><g><path d="M 3.078125 0 L 1.21875 0 L 1.21875 -10.171875 L 2.8125 -10.171875 L 8.359375 -3.046875 L 8.359375 -10.171875 L 10.203125 -10.171875 L 10.203125 0 L 8.609375 0 L 3.078125 -7.109375 Z M 3.078125 0 "/></g></g></g><g fill="#6263f0" fill-opacity="1"><g transform="translate(213.643313, 100.258481)"><g/></g></g><g fill="#6263f0" fill-opacity="1"><g transform="translate(218.950497, 100.258481)"><g><path d="M 5.15625 0 L 1.21875 0 L 1.21875 -10.171875 L 5.125 -10.171875 C 5.9375 -10.171875 6.675781 -10.046875 7.34375 -9.796875 C 8.007812 -9.554688 8.578125 -9.210938 9.046875 -8.765625 C 9.523438 -8.316406 9.890625 -7.78125 10.140625 -7.15625 C 10.398438 -6.539062 10.53125 -5.851562 10.53125 -5.09375 C 10.53125 -4.332031 10.398438 -3.640625 10.140625 -3.015625 C 9.890625 -2.390625 9.523438 -1.847656 9.046875 -1.390625 C 8.578125 -0.941406 8.007812 -0.597656 7.34375 -0.359375 C 6.6875 -0.117188 5.957031 0 5.15625 0 Z M 3.046875 -8.515625 L 3.046875 -1.65625 L 5.09375 -1.65625 C 5.832031 -1.65625 6.46875 -1.789062 7 -2.0625 C 7.539062 -2.34375 7.953125 -2.738281 8.234375 -3.25 C 8.515625 -3.757812 8.65625 -4.363281 8.65625 -5.0625 C 8.65625 -5.75 8.515625 -6.351562 8.234375 -6.875 C 7.960938 -7.394531 7.554688 -7.796875 7.015625 -8.078125 C 6.484375 -8.367188 5.835938 -8.515625 5.078125 -8.515625 Z M 3.046875 -8.515625 "/></g></g></g><g fill="#6263f0" fill-opacity="1"><g transform="translate(231.559883, 100.258481)"><g><path d="M 3.078125 0 L 1.21875 0 L 1.21875 -10.171875 L 3.078125 -10.171875 Z M 3.078125 0 "/></g></g></g><g fill="#6263f0" fill-opacity="1"><g transform="translate(237.412677, 100.258481)"><g><path d="M 4.640625 0.234375 C 3.910156 0.234375 3.28125 0.140625 2.75 -0.046875 C 2.226562 -0.242188 1.800781 -0.5 1.46875 -0.8125 C 1.144531 -1.125 0.90625 -1.472656 0.75 -1.859375 C 0.59375 -2.253906 0.515625 -2.648438 0.515625 -3.046875 L 2.375 -3.046875 C 2.375 -2.734375 2.460938 -2.445312 2.640625 -2.1875 C 2.816406 -1.925781 3.070312 -1.71875 3.40625 -1.5625 C 3.75 -1.414062 4.160156 -1.34375 4.640625 -1.34375 C 6.148438 -1.34375 6.90625 -1.847656 6.90625 -2.859375 C 6.90625 -3.171875 6.804688 -3.425781 6.609375 -3.625 C 6.410156 -3.820312 6.132812 -3.976562 5.78125 -4.09375 C 5.4375 -4.21875 5.03125 -4.328125 4.5625 -4.421875 C 4.21875 -4.492188 3.867188 -4.578125 3.515625 -4.671875 C 3.160156 -4.773438 2.816406 -4.898438 2.484375 -5.046875 C 2.160156 -5.191406 1.867188 -5.375 1.609375 -5.59375 C 1.347656 -5.8125 1.140625 -6.078125 0.984375 -6.390625 C 0.835938 -6.703125 0.765625 -7.066406 0.765625 -7.484375 C 0.765625 -8.046875 0.894531 -8.546875 1.15625 -8.984375 C 1.425781 -9.421875 1.84375 -9.765625 2.40625 -10.015625 C 2.976562 -10.273438 3.703125 -10.40625 4.578125 -10.40625 C 5.421875 -10.40625 6.125 -10.273438 6.6875 -10.015625 C 7.257812 -9.765625 7.6875 -9.410156 7.96875 -8.953125 C 8.257812 -8.492188 8.40625 -7.960938 8.40625 -7.359375 L 6.546875 -7.359375 C 6.546875 -7.617188 6.472656 -7.851562 6.328125 -8.0625 C 6.191406 -8.28125 5.976562 -8.453125 5.6875 -8.578125 C 5.394531 -8.710938 5.015625 -8.78125 4.546875 -8.78125 C 4.171875 -8.78125 3.859375 -8.742188 3.609375 -8.671875 C 3.359375 -8.597656 3.160156 -8.5 3.015625 -8.375 C 2.867188 -8.25 2.765625 -8.109375 2.703125 -7.953125 C 2.648438 -7.796875 2.625 -7.640625 2.625 -7.484375 C 2.625 -7.054688 2.835938 -6.726562 3.265625 -6.5 C 3.691406 -6.28125 4.332031 -6.101562 5.1875 -5.96875 C 5.65625 -5.882812 6.101562 -5.765625 6.53125 -5.609375 C 6.957031 -5.460938 7.335938 -5.269531 7.671875 -5.03125 C 8.015625 -4.800781 8.285156 -4.503906 8.484375 -4.140625 C 8.679688 -3.785156 8.78125 -3.351562 8.78125 -2.84375 C 8.78125 -2.1875 8.609375 -1.628906 8.265625 -1.171875 C 7.929688 -0.710938 7.453125 -0.363281 6.828125 -0.125 C 6.210938 0.113281 5.484375 0.234375 4.640625 0.234375 Z M 4.640625 0.234375 "/></g></g></g><g fill="#6263f0" fill-opacity="1"><g transform="translate(248.243226, 100.258481)"><g><path d="M 3.078125 0 L 1.21875 0 L 1.21875 -10.171875 L 5.5 -10.171875 C 6.007812 -10.171875 6.476562 -10.082031 6.90625 -9.90625 C 7.34375 -9.738281 7.71875 -9.5 8.03125 -9.1875 C 8.34375 -8.882812 8.585938 -8.523438 8.765625 -8.109375 C 8.941406 -7.691406 9.03125 -7.238281 9.03125 -6.75 C 9.03125 -6.21875 8.941406 -5.738281 8.765625 -5.3125 C 8.597656 -4.882812 8.359375 -4.515625 8.046875 -4.203125 C 7.734375 -3.898438 7.359375 -3.664062 6.921875 -3.5 C 6.492188 -3.332031 6.03125 -3.25 5.53125 -3.25 L 3.078125 -3.25 Z M 3.078125 -8.515625 L 3.078125 -4.90625 L 5.4375 -4.90625 C 5.757812 -4.90625 6.050781 -4.984375 6.3125 -5.140625 C 6.570312 -5.304688 6.773438 -5.523438 6.921875 -5.796875 C 7.078125 -6.078125 7.15625 -6.394531 7.15625 -6.75 C 7.15625 -7.050781 7.078125 -7.335938 6.921875 -7.609375 C 6.773438 -7.878906 6.570312 -8.097656 6.3125 -8.265625 C 6.050781 -8.429688 5.753906 -8.515625 5.421875 -8.515625 Z M 3.078125 -8.515625 "/></g></g></g><g fill="#6263f0" fill-opacity="1"><g transform="translate(259.073774, 100.258481)"><g><path d="M 7.65625 0 L 1.21875 0 L 1.21875 -10.171875 L 3.078125 -10.171875 L 3.078125 -1.671875 L 7.65625 -1.671875 Z M 7.65625 0 "/></g></g></g><g fill="#6263f0" fill-opacity="1"><g transform="translate(268.611302, 100.258481)"><g><path d="M 10.296875 0 L 8.328125 0 L 7.515625 -1.96875 L 2.84375 -1.96875 L 2.03125 0 L 0.0625 0 L 4.296875 -10.171875 L 6.0625 -10.171875 Z M 5.109375 -7.53125 L 3.484375 -3.515625 L 6.890625 -3.515625 L 5.234375 -7.53125 L 5.203125 -7.78125 L 5.171875 -7.78125 Z M 5.109375 -7.53125 "/></g></g></g><g fill="#6263f0" fill-opacity="1"><g transform="translate(280.555492, 100.258481)"><g><path d="M 5.96875 0 L 4.109375 0 L 4.109375 -3.859375 L 0.109375 -10.171875 L 2.28125 -10.171875 L 5.046875 -5.53125 L 7.796875 -10.171875 L 9.984375 -10.171875 L 5.96875 -3.875 Z M 5.96875 0 "/></g></g></g><g fill="#6263f0" fill-opacity="1"><g transform="translate(292.230615, 100.258481)"><g/></g></g><g fill="#6263f0" fill-opacity="1"><g transform="translate(297.537799, 100.258481)"><g><path d="M 4.640625 0.234375 C 3.910156 0.234375 3.28125 0.140625 2.75 -0.046875 C 2.226562 -0.242188 1.800781 -0.5 1.46875 -0.8125 C 1.144531 -1.125 0.90625 -1.472656 0.75 -1.859375 C 0.59375 -2.253906 0.515625 -2.648438 0.515625 -3.046875 L 2.375 -3.046875 C 2.375 -2.734375 2.460938 -2.445312 2.640625 -2.1875 C 2.816406 -1.925781 3.070312 -1.71875 3.40625 -1.5625 C 3.75 -1.414062 4.160156 -1.34375 4.640625 -1.34375 C 6.148438 -1.34375 6.90625 -1.847656 6.90625 -2.859375 C 6.90625 -3.171875 6.804688 -3.425781 6.609375 -3.625 C 6.410156 -3.820312 6.132812 -3.976562 5.78125 -4.09375 C 5.4375 -4.21875 5.03125 -4.328125 4.5625 -4.421875 C 4.21875 -4.492188 3.867188 -4.578125 3.515625 -4.671875 C 3.160156 -4.773438 2.816406 -4.898438 2.484375 -5.046875 C 2.160156 -5.191406 1.867188 -5.375 1.609375 -5.59375 C 1.347656 -5.8125 1.140625 -6.078125 0.984375 -6.390625 C 0.835938 -6.703125 0.765625 -7.066406 0.765625 -7.484375 C 0.765625 -8.046875 0.894531 -8.546875 1.15625 -8.984375 C 1.425781 -9.421875 1.84375 -9.765625 2.40625 -10.015625 C 2.976562 -10.273438 3.703125 -10.40625 4.578125 -10.40625 C 5.421875 -10.40625 6.125 -10.273438 6.6875 -10.015625 C 7.257812 -9.765625 7.6875 -9.410156 7.96875 -8.953125 C 8.257812 -8.492188 8.40625 -7.960938 8.40625 -7.359375 L 6.546875 -7.359375 C 6.546875 -7.617188 6.472656 -7.851562 6.328125 -8.0625 C 6.191406 -8.28125 5.976562 -8.453125 5.6875 -8.578125 C 5.394531 -8.710938 5.015625 -8.78125 4.546875 -8.78125 C 4.171875 -8.78125 3.859375 -8.742188 3.609375 -8.671875 C 3.359375 -8.597656 3.160156 -8.5 3.015625 -8.375 C 2.867188 -8.25 2.765625 -8.109375 2.703125 -7.953125 C 2.648438 -7.796875 2.625 -7.640625 2.625 -7.484375 C 2.625 -7.054688 2.835938 -6.726562 3.265625 -6.5 C 3.691406 -6.28125 4.332031 -6.101562 5.1875 -5.96875 C 5.65625 -5.882812 6.101562 -5.765625 6.53125 -5.609375 C 6.957031 -5.460938 7.335938 -5.269531 7.671875 -5.03125 C 8.015625 -4.800781 8.285156 -4.503906 8.484375 -4.140625 C 8.679688 -3.785156 8.78125 -3.351562 8.78125 -2.84375 C 8.78125 -2.1875 8.609375 -1.628906 8.265625 -1.171875 C 7.929688 -0.710938 7.453125 -0.363281 6.828125 -0.125 C 6.210938 0.113281 5.484375 0.234375 4.640625 0.234375 Z M 4.640625 0.234375 "/></g></g></g><g fill="#6263f0" fill-opacity="1"><g transform="translate(308.368348, 100.258481)"><g><path d="M 5.96875 0 L 4.109375 0 L 4.109375 -3.859375 L 0.109375 -10.171875 L 2.28125 -10.171875 L 5.046875 -5.53125 L 7.796875 -10.171875 L 9.984375 -10.171875 L 5.96875 -3.875 Z M 5.96875 0 "/></g></g></g><g fill="#6263f0" fill-opacity="1"><g transform="translate(320.04347, 100.258481)"><g><path d="M 4.640625 0.234375 C 3.910156 0.234375 3.28125 0.140625 2.75 -0.046875 C 2.226562 -0.242188 1.800781 -0.5 1.46875 -0.8125 C 1.144531 -1.125 0.90625 -1.472656 0.75 -1.859375 C 0.59375 -2.253906 0.515625 -2.648438 0.515625 -3.046875 L 2.375 -3.046875 C 2.375 -2.734375 2.460938 -2.445312 2.640625 -2.1875 C 2.816406 -1.925781 3.070312 -1.71875 3.40625 -1.5625 C 3.75 -1.414062 4.160156 -1.34375 4.640625 -1.34375 C 6.148438 -1.34375 6.90625 -1.847656 6.90625 -2.859375 C 6.90625 -3.171875 6.804688 -3.425781 6.609375 -3.625 C 6.410156 -3.820312 6.132812 -3.976562 5.78125 -4.09375 C 5.4375 -4.21875 5.03125 -4.328125 4.5625 -4.421875 C 4.21875 -4.492188 3.867188 -4.578125 3.515625 -4.671875 C 3.160156 -4.773438 2.816406 -4.898438 2.484375 -5.046875 C 2.160156 -5.191406 1.867188 -5.375 1.609375 -5.59375 C 1.347656 -5.8125 1.140625 -6.078125 0.984375 -6.390625 C 0.835938 -6.703125 0.765625 -7.066406 0.765625 -7.484375 C 0.765625 -8.046875 0.894531 -8.546875 1.15625 -8.984375 C 1.425781 -9.421875 1.84375 -9.765625 2.40625 -10.015625 C 2.976562 -10.273438 3.703125 -10.40625 4.578125 -10.40625 C 5.421875 -10.40625 6.125 -10.273438 6.6875 -10.015625 C 7.257812 -9.765625 7.6875 -9.410156 7.96875 -8.953125 C 8.257812 -8.492188 8.40625 -7.960938 8.40625 -7.359375 L 6.546875 -7.359375 C 6.546875 -7.617188 6.472656 -7.851562 6.328125 -8.0625 C 6.191406 -8.28125 5.976562 -8.453125 5.6875 -8.578125 C 5.394531 -8.710938 5.015625 -8.78125 4.546875 -8.78125 C 4.171875 -8.78125 3.859375 -8.742188 3.609375 -8.671875 C 3.359375 -8.597656 3.160156 -8.5 3.015625 -8.375 C 2.867188 -8.25 2.765625 -8.109375 2.703125 -7.953125 C 2.648438 -7.796875 2.625 -7.640625 2.625 -7.484375 C 2.625 -7.054688 2.835938 -6.726562 3.265625 -6.5 C 3.691406 -6.28125 4.332031 -6.101562 5.1875 -5.96875 C 5.65625 -5.882812 6.101562 -5.765625 6.53125 -5.609375 C 6.957031 -5.460938 7.335938 -5.269531 7.671875 -5.03125 C 8.015625 -4.800781 8.285156 -4.503906 8.484375 -4.140625 C 8.679688 -3.785156 8.78125 -3.351562 8.78125 -2.84375 C 8.78125 -2.1875 8.609375 -1.628906 8.265625 -1.171875 C 7.929688 -0.710938 7.453125 -0.363281 6.828125 -0.125 C 6.210938 0.113281 5.484375 0.234375 4.640625 0.234375 Z M 4.640625 0.234375 "/></g></g></g><g fill="#6263f0" fill-opacity="1"><g transform="translate(330.874018, 100.258481)"><g><path d="M 5.203125 0 L 3.34375 0 L 3.34375 -8.515625 L 0.328125 -8.515625 L 0.328125 -10.171875 L 8.234375 -10.171875 L 8.234375 -8.515625 L 5.203125 -8.515625 Z M 5.203125 0 "/></g></g></g><g fill="#6263f0" fill-opacity="1"><g transform="translate(341.002001, 100.258481)"><g><path d="M 8.25 0 L 1.21875 0 L 1.21875 -10.171875 L 8.171875 -10.171875 L 8.171875 -8.5 L 3.078125 -8.5 L 3.078125 -5.953125 L 7.484375 -5.953125 L 7.484375 -4.375 L 3.078125 -4.375 L 3.078125 -1.671875 L 8.25 -1.671875 Z M 8.25 0 "/></g></g></g><g fill="#6263f0" fill-opacity="1"><g transform="translate(351.309362, 100.258481)"><g><path d="M 3.078125 0 L 1.21875 0 L 1.21875 -10.171875 L 2.828125 -10.171875 L 6.34375 -5.421875 L 9.875 -10.171875 L 11.484375 -10.171875 L 11.484375 0 L 9.625 0 L 9.625 -7.1875 L 6.59375 -3.03125 L 6.09375 -3.03125 L 3.078125 -7.203125 Z M 3.078125 0 "/></g></g></g></svg>